<svg width="323" height="328" viewBox="0 0 323 328" fill="none" xmlns="http://www.w3.org/2000/svg">
    <g filter="url(#filter0_ii_440_9949)">
        <rect x="9.84961" y="219.9" width="297" height="10.5" rx="5.25" fill="#1B1B1D"/>
    </g>
    <g filter="url(#filter1_d_440_9949)">
        <path d="M9.84961 225.5C9.84961 222.794 12.0434 220.6 14.7496 220.6L304.683 220.6C307.389 220.6 309.583 222.794 309.583 225.5C309.583 228.206 307.389 230.4 304.683 230.4L14.7496 230.4C12.0434 230.4 9.84961 228.206 9.84961 225.5Z" fill="url(#paint0_linear_440_9949)"/>
    </g>
    <circle cx="306.35" cy="225.5" r="9.5" stroke="#FBFBFB" stroke-width="2"/>
    <g filter="url(#filter2_i_440_9949)">
        <circle cx="306.35" cy="225.5" r="6.5" fill="url(#paint1_linear_440_9949)"/>
    </g>
    <g filter="url(#filter3_dd_440_9949)">
        <g filter="url(#filter4_dd_440_9949)">
            <rect x="116.85" y="199" width="89.9134" height="25.7833" rx="5" fill="#D9D9D9"/>
            <path d="M121.478 219L126.297 211.586V211.515L121.519 204.204H124.647L128.071 209.761H128.153L131.619 204.204H134.583L129.651 211.576V211.648L134.501 219H131.455L127.969 213.565H127.887L124.36 219H121.478ZM141.463 219.308C139.31 219.308 137.556 218.262 136.562 216.365C135.864 215.155 135.506 213.606 135.506 211.771C135.506 206.839 137.792 203.896 141.545 203.896C144.252 203.896 146.354 205.506 146.795 207.895H144.17C143.832 206.777 142.796 206.049 141.525 206.049C139.31 206.049 138.007 208.1 138.028 211.668H138.079C138.705 210.223 140.222 209.259 142.089 209.259C144.898 209.259 146.99 211.33 146.99 214.14C146.99 217.144 144.672 219.308 141.463 219.308ZM141.443 217.144C143.083 217.144 144.385 215.852 144.385 214.222C144.385 212.55 143.155 211.33 141.463 211.33C139.761 211.33 138.5 212.55 138.5 214.191C138.5 215.842 139.792 217.144 141.443 217.144ZM154.629 219.308C152.476 219.308 150.722 218.262 149.728 216.365C149.03 215.155 148.672 213.606 148.672 211.771C148.672 206.839 150.958 203.896 154.711 203.896C157.418 203.896 159.52 205.506 159.961 207.895H157.336C156.998 206.777 155.962 206.049 154.691 206.049C152.476 206.049 151.173 208.1 151.194 211.668H151.245C151.871 210.223 153.388 209.259 155.255 209.259C158.064 209.259 160.156 211.33 160.156 214.14C160.156 217.144 157.839 219.308 154.629 219.308ZM154.609 217.144C156.249 217.144 157.551 215.852 157.551 214.222C157.551 212.55 156.321 211.33 154.629 211.33C152.927 211.33 151.666 212.55 151.666 214.191C151.666 215.842 152.958 217.144 154.609 217.144ZM167.795 219.308C165.642 219.308 163.888 218.262 162.894 216.365C162.196 215.155 161.838 213.606 161.838 211.771C161.838 206.839 164.124 203.896 167.877 203.896C170.584 203.896 172.686 205.506 173.127 207.895H170.502C170.164 206.777 169.128 206.049 167.857 206.049C165.642 206.049 164.339 208.1 164.36 211.668H164.411C165.037 210.223 166.554 209.259 168.421 209.259C171.23 209.259 173.322 211.33 173.322 214.14C173.322 217.144 171.005 219.308 167.795 219.308ZM167.775 217.144C169.415 217.144 170.717 215.852 170.717 214.222C170.717 212.55 169.487 211.33 167.795 211.33C166.093 211.33 164.832 212.55 164.832 214.191C164.832 215.842 166.124 217.144 167.775 217.144ZM177.495 219.123C176.962 219.123 176.49 219.031 176.378 218.979V216.775C176.521 216.806 176.798 216.857 177.249 216.857C178.234 216.857 178.921 216.519 179.464 215.606L174.501 204.204H177.3L180.807 212.919H180.941L184.304 204.204H187.083L182.55 214.765C181.217 217.872 179.956 219.123 177.495 219.123ZM201.274 219H198.639V212.581H191.441V219H188.795V204.204H191.441V210.356H198.639V204.204H201.274V219Z" fill="black"/>
        </g>
    </g>
    <path d="M31.2086 187H285.574L306.933 194.639V225.598L9.84961 226V195.443L31.2086 187Z" fill="url(#paint2_linear_440_9949)" fill-opacity="0.2"/>
    <path d="M11.334 249.873C11.334 248.623 11.7572 247.594 12.6035 246.787C13.4564 245.98 14.5371 245.576 15.8457 245.576C17.1087 245.576 18.1667 245.957 19.0195 246.719C19.8789 247.474 20.3086 248.411 20.3086 249.531C20.3086 250.267 20.1003 250.99 19.6836 251.699C19.2669 252.409 18.4824 253.382 17.3301 254.619L13.9414 258.262V258.418H20.543V260H11.4219V258.789L16.2949 253.467C17.1999 252.484 17.8021 251.735 18.1016 251.221C18.401 250.706 18.5508 250.166 18.5508 249.6C18.5508 248.896 18.2839 248.307 17.75 247.832C17.2227 247.35 16.5716 247.109 15.7969 247.109C14.9701 247.109 14.3027 247.363 13.7949 247.871C13.2871 248.379 13.0332 249.046 13.0332 249.873V249.883H11.334V249.873ZM28.248 260.332C26.6595 260.332 25.429 259.688 24.5566 258.398C23.6842 257.109 23.248 255.293 23.248 252.949C23.248 250.625 23.6875 248.815 24.5664 247.52C25.4453 246.224 26.6725 245.576 28.248 245.576C29.8171 245.576 31.0378 246.227 31.9102 247.529C32.7891 248.831 33.2285 250.648 33.2285 252.979C33.2285 255.316 32.7923 257.126 31.9199 258.408C31.054 259.691 29.8301 260.332 28.248 260.332ZM25.8457 257.285C26.4056 258.294 27.2064 258.799 28.248 258.799C29.2897 258.799 30.084 258.298 30.6309 257.295C31.1842 256.286 31.4609 254.837 31.4609 252.949C31.4609 251.081 31.181 249.642 30.6211 248.633C30.0677 247.624 29.2767 247.119 28.248 247.119C27.2194 247.119 26.4219 247.627 25.8555 248.643C25.2956 249.652 25.0156 251.087 25.0156 252.949C25.0156 254.831 25.2923 256.276 25.8457 257.285ZM37.5059 258.389C37.1608 258.389 36.8613 258.265 36.6074 258.018C36.36 257.764 36.2363 257.464 36.2363 257.119C36.2363 256.768 36.36 256.468 36.6074 256.221C36.8613 255.973 37.1608 255.85 37.5059 255.85C37.8574 255.85 38.1569 255.973 38.4043 256.221C38.6517 256.468 38.7754 256.768 38.7754 257.119C38.7754 257.464 38.6517 257.764 38.4043 258.018C38.1569 258.265 37.8574 258.389 37.5059 258.389ZM37.5059 250.879C37.1608 250.879 36.8613 250.755 36.6074 250.508C36.36 250.254 36.2363 249.954 36.2363 249.609C36.2363 249.258 36.36 248.958 36.6074 248.711C36.8613 248.464 37.1608 248.34 37.5059 248.34C37.8574 248.34 38.1569 248.464 38.4043 248.711C38.6517 248.958 38.7754 249.258 38.7754 249.609C38.7754 249.954 38.6517 250.254 38.4043 250.508C38.1569 250.755 37.8574 250.879 37.5059 250.879ZM46.7832 260.332C45.1947 260.332 43.9642 259.688 43.0918 258.398C42.2194 257.109 41.7832 255.293 41.7832 252.949C41.7832 250.625 42.2227 248.815 43.1016 247.52C43.9805 246.224 45.2077 245.576 46.7832 245.576C48.3522 245.576 49.5729 246.227 50.4453 247.529C51.3242 248.831 51.7637 250.648 51.7637 252.979C51.7637 255.316 51.3275 257.126 50.4551 258.408C49.5892 259.691 48.3652 260.332 46.7832 260.332ZM44.3809 257.285C44.9408 258.294 45.7415 258.799 46.7832 258.799C47.8249 258.799 48.6191 258.298 49.166 257.295C49.7194 256.286 49.9961 254.837 49.9961 252.949C49.9961 251.081 49.7161 249.642 49.1562 248.633C48.6029 247.624 47.8118 247.119 46.7832 247.119C45.7546 247.119 44.957 247.627 44.3906 248.643C43.8307 249.652 43.5508 251.087 43.5508 252.949C43.5508 254.831 43.8275 256.276 44.3809 257.285ZM57.5254 253.506V252.002H59.2344C60.0352 252.002 60.6895 251.768 61.1973 251.299C61.7116 250.83 61.9688 250.231 61.9688 249.502C61.9688 248.786 61.7214 248.21 61.2266 247.773C60.7318 247.331 60.0775 247.109 59.2637 247.109C58.4499 247.109 57.7923 247.324 57.291 247.754C56.7897 248.177 56.5033 248.766 56.4316 249.521H54.7227C54.8138 248.298 55.2695 247.334 56.0898 246.631C56.9102 245.928 57.9909 245.576 59.332 245.576C60.1393 245.576 60.8815 245.742 61.5586 246.074C62.2422 246.4 62.7793 246.846 63.1699 247.412C63.5605 247.979 63.7559 248.597 63.7559 249.268C63.7559 250.107 63.5378 250.817 63.1016 251.396C62.6654 251.976 62.0599 252.36 61.2852 252.549V252.705C62.2422 252.829 62.9941 253.203 63.541 253.828C64.0879 254.447 64.3613 255.238 64.3613 256.201C64.3613 257.36 63.8828 258.34 62.9258 259.141C61.9688 259.935 60.7936 260.332 59.4004 260.332C57.9681 260.332 56.7995 259.967 55.8945 259.238C54.9896 258.503 54.5046 257.533 54.4395 256.328H56.1387C56.2168 257.077 56.5488 257.676 57.1348 258.125C57.7207 258.574 58.4694 258.799 59.3809 258.799C60.3053 258.799 61.0638 258.551 61.6562 258.057C62.2552 257.562 62.5547 256.927 62.5547 256.152C62.5547 255.339 62.265 254.694 61.6855 254.219C61.1061 253.743 60.3151 253.506 59.3125 253.506H57.5254Z" fill="white"/>
    <path d="M15.7676 267.879H13.1992V270.848H15.4941C16.8158 270.848 17.4766 270.346 17.4766 269.344C17.4766 268.888 17.3333 268.53 17.0469 268.27C16.7669 268.009 16.3405 267.879 15.7676 267.879ZM15.6406 272.254H13.1992V275.594H15.9629C16.6074 275.594 17.0957 275.454 17.4277 275.174C17.7663 274.887 17.9355 274.477 17.9355 273.943C17.9355 273.364 17.7435 272.938 17.3594 272.664C16.9818 272.391 16.4089 272.254 15.6406 272.254ZM11.5195 277V266.473H15.9824C16.9655 266.473 17.737 266.717 18.2969 267.205C18.8568 267.687 19.1367 268.341 19.1367 269.168C19.1367 269.689 18.9707 270.164 18.6387 270.594C18.3132 271.017 17.9062 271.281 17.418 271.385V271.541C18.082 271.632 18.6126 271.902 19.0098 272.352C19.4069 272.794 19.6055 273.335 19.6055 273.973C19.6055 274.897 19.2865 275.633 18.6484 276.18C18.0104 276.727 17.1283 277 16.002 277H11.5195ZM27.3984 277H23.6387V267.879H20.8066V266.473H25.3184V269.852H27.3984C28.6029 269.852 29.5632 270.174 30.2793 270.818C30.9954 271.463 31.3535 272.332 31.3535 273.426C31.3535 274.52 30.9954 275.389 30.2793 276.033C29.5632 276.678 28.6029 277 27.3984 277ZM27.3984 271.258H25.3184V275.594H27.3984C28.0885 275.594 28.6387 275.398 29.0488 275.008C29.4655 274.611 29.6738 274.083 29.6738 273.426C29.6738 272.768 29.4655 272.244 29.0488 271.854C28.6387 271.456 28.0885 271.258 27.3984 271.258ZM38.1895 267.771C37.3496 267.771 36.6595 268.055 36.1191 268.621C35.5788 269.188 35.276 269.936 35.2109 270.867H41.0117C40.9922 269.936 40.7253 269.188 40.2109 268.621C39.6966 268.055 39.0228 267.771 38.1895 267.771ZM40.9629 274.275H42.6426C42.3887 275.187 41.8711 275.9 41.0898 276.414C40.3151 276.928 39.3548 277.186 38.209 277.186C36.7507 277.186 35.5951 276.697 34.7422 275.721C33.8893 274.738 33.4629 273.413 33.4629 271.746C33.4629 270.086 33.8926 268.761 34.752 267.771C35.6113 266.782 36.7637 266.287 38.209 266.287C39.6283 266.287 40.7448 266.759 41.5586 267.703C42.3724 268.647 42.7793 269.939 42.7793 271.58V272.225H35.2109V272.303C35.2565 273.344 35.5495 274.171 36.0898 274.783C36.6367 275.395 37.3561 275.701 38.248 275.701C39.6087 275.701 40.5137 275.226 40.9629 274.275ZM49.1855 277.176C48.0332 277.176 47.0697 276.915 46.2949 276.395C45.5267 275.867 45.097 275.171 45.0059 274.305H46.7344C46.8385 274.76 47.1055 275.118 47.5352 275.379C47.9714 275.633 48.5215 275.76 49.1855 275.76C49.9473 275.76 50.5495 275.597 50.9922 275.271C51.4349 274.946 51.6562 274.516 51.6562 273.982C51.6562 272.817 50.8327 272.234 49.1855 272.234H47.5449V270.828H49.1855C50.5658 270.828 51.2559 270.304 51.2559 269.256C51.2559 268.794 51.0768 268.423 50.7188 268.143C50.3607 267.856 49.8496 267.713 49.1855 267.713C48.554 267.713 48.0234 267.84 47.5938 268.094C47.1641 268.348 46.9167 268.686 46.8516 269.109H45.1914C45.3021 268.243 45.7188 267.557 46.4414 267.049C47.1641 266.541 48.0788 266.287 49.1855 266.287C50.3509 266.287 51.2624 266.548 51.9199 267.068C52.584 267.589 52.916 268.276 52.916 269.129C52.916 269.656 52.7565 270.128 52.4375 270.545C52.125 270.962 51.7148 271.229 51.207 271.346V271.502C51.8971 271.652 52.4212 271.935 52.7793 272.352C53.1439 272.768 53.3262 273.283 53.3262 273.895C53.3262 274.871 52.9421 275.662 52.1738 276.268C51.4056 276.873 50.4095 277.176 49.1855 277.176ZM62.8477 275.594V267.879H58.8535L58.5215 272.381C58.4108 273.8 58.1211 274.819 57.6523 275.438V275.594H62.8477ZM56.3926 279.783H54.8105V275.594H55.6895C56.054 275.353 56.3405 274.943 56.5488 274.363C56.7572 273.777 56.8874 273.104 56.9395 272.342L57.3496 266.473H64.5273V275.594H66.207V279.783H64.625V277H56.3926V279.783Z" fill="#7D7D7D"/>
    <path d="M262.619 249.873C262.619 248.623 263.042 247.594 263.889 246.787C264.742 245.98 265.822 245.576 267.131 245.576C268.394 245.576 269.452 245.957 270.305 246.719C271.164 247.474 271.594 248.411 271.594 249.531C271.594 250.267 271.385 250.99 270.969 251.699C270.552 252.409 269.768 253.382 268.615 254.619L265.227 258.262V258.418H271.828V260H262.707V258.789L267.58 253.467C268.485 252.484 269.087 251.735 269.387 251.221C269.686 250.706 269.836 250.166 269.836 249.6C269.836 248.896 269.569 248.307 269.035 247.832C268.508 247.35 267.857 247.109 267.082 247.109C266.255 247.109 265.588 247.363 265.08 247.871C264.572 248.379 264.318 249.046 264.318 249.873V249.883H262.619V249.873ZM278.166 260V247.861H278.01L274.426 250.459V248.604L278.176 245.908H279.924V260H278.166ZM285.529 258.389C285.184 258.389 284.885 258.265 284.631 258.018C284.383 257.764 284.26 257.464 284.26 257.119C284.26 256.768 284.383 256.468 284.631 256.221C284.885 255.973 285.184 255.85 285.529 255.85C285.881 255.85 286.18 255.973 286.428 256.221C286.675 256.468 286.799 256.768 286.799 257.119C286.799 257.464 286.675 257.764 286.428 258.018C286.18 258.265 285.881 258.389 285.529 258.389ZM285.529 250.879C285.184 250.879 284.885 250.755 284.631 250.508C284.383 250.254 284.26 249.954 284.26 249.609C284.26 249.258 284.383 248.958 284.631 248.711C284.885 248.464 285.184 248.34 285.529 248.34C285.881 248.34 286.18 248.464 286.428 248.711C286.675 248.958 286.799 249.258 286.799 249.609C286.799 249.954 286.675 250.254 286.428 250.508C286.18 250.755 285.881 250.879 285.529 250.879ZM294.807 260.332C293.218 260.332 291.988 259.688 291.115 258.398C290.243 257.109 289.807 255.293 289.807 252.949C289.807 250.625 290.246 248.815 291.125 247.52C292.004 246.224 293.231 245.576 294.807 245.576C296.376 245.576 297.596 246.227 298.469 247.529C299.348 248.831 299.787 250.648 299.787 252.979C299.787 255.316 299.351 257.126 298.479 258.408C297.613 259.691 296.389 260.332 294.807 260.332ZM292.404 257.285C292.964 258.294 293.765 258.799 294.807 258.799C295.848 258.799 296.643 258.298 297.189 257.295C297.743 256.286 298.02 254.837 298.02 252.949C298.02 251.081 297.74 249.642 297.18 248.633C296.626 247.624 295.835 247.119 294.807 247.119C293.778 247.119 292.98 247.627 292.414 248.643C291.854 249.652 291.574 251.087 291.574 252.949C291.574 254.831 291.851 256.276 292.404 257.285ZM307.17 260.322C305.972 260.322 304.956 259.993 304.123 259.336C303.296 258.672 302.772 257.773 302.551 256.641H304.357C304.546 257.298 304.891 257.816 305.393 258.193C305.9 258.571 306.499 258.76 307.189 258.76C308.335 258.76 309.224 258.265 309.855 257.275C310.493 256.286 310.835 254.854 310.881 252.979H310.803H310.764H310.725C310.38 253.662 309.878 254.196 309.221 254.58C308.563 254.958 307.814 255.146 306.975 255.146C305.633 255.146 304.527 254.704 303.654 253.818C302.782 252.926 302.346 251.797 302.346 250.43C302.346 249.01 302.808 247.848 303.732 246.943C304.657 246.032 305.842 245.576 307.287 245.576C308.342 245.576 309.266 245.85 310.061 246.396C310.855 246.943 311.47 247.738 311.906 248.779C312.362 249.847 312.59 251.156 312.59 252.705C312.59 255.127 312.118 257.002 311.174 258.33C310.23 259.658 308.895 260.322 307.17 260.322ZM305.002 252.725C305.594 253.324 306.356 253.623 307.287 253.623C308.218 253.623 308.983 253.324 309.582 252.725C310.188 252.126 310.49 251.361 310.49 250.43C310.49 249.486 310.184 248.698 309.572 248.066C308.967 247.435 308.212 247.119 307.307 247.119C306.402 247.119 305.643 247.432 305.031 248.057C304.426 248.675 304.123 249.447 304.123 250.371C304.123 251.335 304.416 252.119 305.002 252.725Z" fill="white"/>
    <path d="M260.768 267.879H258.199V270.848H260.494C261.816 270.848 262.477 270.346 262.477 269.344C262.477 268.888 262.333 268.53 262.047 268.27C261.767 268.009 261.34 267.879 260.768 267.879ZM260.641 272.254H258.199V275.594H260.963C261.607 275.594 262.096 275.454 262.428 275.174C262.766 274.887 262.936 274.477 262.936 273.943C262.936 273.364 262.743 272.938 262.359 272.664C261.982 272.391 261.409 272.254 260.641 272.254ZM256.52 277V266.473H260.982C261.965 266.473 262.737 266.717 263.297 267.205C263.857 267.687 264.137 268.341 264.137 269.168C264.137 269.689 263.971 270.164 263.639 270.594C263.313 271.017 262.906 271.281 262.418 271.385V271.541C263.082 271.632 263.613 271.902 264.01 272.352C264.407 272.794 264.605 273.335 264.605 273.973C264.605 274.897 264.286 275.633 263.648 276.18C263.01 276.727 262.128 277 261.002 277H256.52ZM276.686 277V266.473H278.365V277H276.686ZM271.236 271.258H269.156V275.594H271.236C271.926 275.594 272.477 275.398 272.887 275.008C273.303 274.611 273.512 274.083 273.512 273.426C273.512 272.768 273.303 272.244 272.887 271.854C272.477 271.456 271.926 271.258 271.236 271.258ZM267.477 277V266.473H269.156V269.852H271.236C272.441 269.852 273.401 270.174 274.117 270.818C274.833 271.463 275.191 272.332 275.191 273.426C275.191 274.52 274.833 275.389 274.117 276.033C273.401 276.678 272.441 277 271.236 277H267.477ZM285.924 267.771C285.084 267.771 284.394 268.055 283.854 268.621C283.313 269.188 283.01 269.936 282.945 270.867H288.746C288.727 269.936 288.46 269.188 287.945 268.621C287.431 268.055 286.757 267.771 285.924 267.771ZM288.697 274.275H290.377C290.123 275.187 289.605 275.9 288.824 276.414C288.049 276.928 287.089 277.186 285.943 277.186C284.485 277.186 283.329 276.697 282.477 275.721C281.624 274.738 281.197 273.413 281.197 271.746C281.197 270.086 281.627 268.761 282.486 267.771C283.346 266.782 284.498 266.287 285.943 266.287C287.363 266.287 288.479 266.759 289.293 267.703C290.107 268.647 290.514 269.939 290.514 271.58V272.225H282.945V272.303C282.991 273.344 283.284 274.171 283.824 274.783C284.371 275.395 285.09 275.701 285.982 275.701C287.343 275.701 288.248 275.226 288.697 274.275ZM296.92 277.176C295.768 277.176 294.804 276.915 294.029 276.395C293.261 275.867 292.831 275.171 292.74 274.305H294.469C294.573 274.76 294.84 275.118 295.27 275.379C295.706 275.633 296.256 275.76 296.92 275.76C297.682 275.76 298.284 275.597 298.727 275.271C299.169 274.946 299.391 274.516 299.391 273.982C299.391 272.817 298.567 272.234 296.92 272.234H295.279V270.828H296.92C298.3 270.828 298.99 270.304 298.99 269.256C298.99 268.794 298.811 268.423 298.453 268.143C298.095 267.856 297.584 267.713 296.92 267.713C296.288 267.713 295.758 267.84 295.328 268.094C294.898 268.348 294.651 268.686 294.586 269.109H292.926C293.036 268.243 293.453 267.557 294.176 267.049C294.898 266.541 295.813 266.287 296.92 266.287C298.085 266.287 298.997 266.548 299.654 267.068C300.318 267.589 300.65 268.276 300.65 269.129C300.65 269.656 300.491 270.128 300.172 270.545C299.859 270.962 299.449 271.229 298.941 271.346V271.502C299.632 271.652 300.156 271.935 300.514 272.352C300.878 272.768 301.061 273.283 301.061 273.895C301.061 274.871 300.676 275.662 299.908 276.268C299.14 276.873 298.144 277.176 296.92 277.176ZM310.582 275.594V267.879H306.588L306.256 272.381C306.145 273.8 305.855 274.819 305.387 275.438V275.594H310.582ZM304.127 279.783H302.545V275.594H303.424C303.788 275.353 304.075 274.943 304.283 274.363C304.492 273.777 304.622 273.104 304.674 272.342L305.084 266.473H312.262V275.594H313.941V279.783H312.359V277H304.127V279.783Z" fill="#7D7D7D"/>
    <defs>
        <filter id="filter0_ii_440_9949" x="8.59961" y="218.65" width="299.5" height="13" filterUnits="userSpaceOnUse" color-interpolation-filters="sRGB">
            <feFlood flood-opacity="0" result="BackgroundImageFix"/>
            <feBlend mode="normal" in="SourceGraphic" in2="BackgroundImageFix" result="shape"/>
            <feColorMatrix in="SourceAlpha" type="matrix" values="0 0 0 0 0 0 0 0 0 0 0 0 0 0 0 0 0 0 127 0" result="hardAlpha"/>
            <feOffset dx="1.25" dy="1.25"/>
            <feGaussianBlur stdDeviation="3"/>
            <feComposite in2="hardAlpha" operator="arithmetic" k2="-1" k3="1"/>
            <feColorMatrix type="matrix" values="0 0 0 0 0 0 0 0 0 0 0 0 0 0 0 0 0 0 0.8 0"/>
            <feBlend mode="normal" in2="shape" result="effect1_innerShadow_440_9949"/>
            <feColorMatrix in="SourceAlpha" type="matrix" values="0 0 0 0 0 0 0 0 0 0 0 0 0 0 0 0 0 0 127 0" result="hardAlpha"/>
            <feOffset dx="-1.25" dy="-1.25"/>
            <feGaussianBlur stdDeviation="3"/>
            <feComposite in2="hardAlpha" operator="arithmetic" k2="-1" k3="1"/>
            <feColorMatrix type="matrix" values="0 0 0 0 1 0 0 0 0 1 0 0 0 0 1 0 0 0 0.08 0"/>
            <feBlend mode="normal" in2="effect1_innerShadow_440_9949" result="effect2_innerShadow_440_9949"/>
        </filter>
        <filter id="filter1_d_440_9949" x="6.09961" y="216.85" width="308.483" height="18.5498" filterUnits="userSpaceOnUse" color-interpolation-filters="sRGB">
            <feFlood flood-opacity="0" result="BackgroundImageFix"/>
            <feColorMatrix in="SourceAlpha" type="matrix" values="0 0 0 0 0 0 0 0 0 0 0 0 0 0 0 0 0 0 127 0" result="hardAlpha"/>
            <feOffset dx="0.625" dy="0.625"/>
            <feGaussianBlur stdDeviation="2.1875"/>
            <feColorMatrix type="matrix" values="0 0 0 0 0 0 0 0 0 0.164167 0 0 0 0 0.820833 0 0 0 1 0"/>
            <feBlend mode="normal" in2="BackgroundImageFix" result="effect1_dropShadow_440_9949"/>
            <feBlend mode="normal" in="SourceGraphic" in2="effect1_dropShadow_440_9949" result="shape"/>
        </filter>
        <filter id="filter2_i_440_9949" x="299.85" y="219" width="13" height="17" filterUnits="userSpaceOnUse" color-interpolation-filters="sRGB">
            <feFlood flood-opacity="0" result="BackgroundImageFix"/>
            <feBlend mode="normal" in="SourceGraphic" in2="BackgroundImageFix" result="shape"/>
            <feColorMatrix in="SourceAlpha" type="matrix" values="0 0 0 0 0 0 0 0 0 0 0 0 0 0 0 0 0 0 127 0" result="hardAlpha"/>
            <feOffset dy="4"/>
            <feGaussianBlur stdDeviation="2"/>
            <feComposite in2="hardAlpha" operator="arithmetic" k2="-1" k3="1"/>
            <feColorMatrix type="matrix" values="0 0 0 0 1 0 0 0 0 1 0 0 0 0 1 0 0 0 0.25 0"/>
            <feBlend mode="normal" in2="shape" result="effect1_innerShadow_440_9949"/>
        </filter>
        <filter id="filter3_dd_440_9949" x="112.85" y="199" width="97.9131" height="33.7832" filterUnits="userSpaceOnUse" color-interpolation-filters="sRGB">
            <feFlood flood-opacity="0" result="BackgroundImageFix"/>
            <feColorMatrix in="SourceAlpha" type="matrix" values="0 0 0 0 0 0 0 0 0 0 0 0 0 0 0 0 0 0 127 0" result="hardAlpha"/>
            <feOffset dy="4"/>
            <feGaussianBlur stdDeviation="1.9"/>
            <feComposite in2="hardAlpha" operator="out"/>
            <feColorMatrix type="matrix" values="0 0 0 0 0 0 0 0 0 0 0 0 0 0 0 0 0 0 0.25 0"/>
            <feBlend mode="normal" in2="BackgroundImageFix" result="effect1_dropShadow_440_9949"/>
            <feColorMatrix in="SourceAlpha" type="matrix" values="0 0 0 0 0 0 0 0 0 0 0 0 0 0 0 0 0 0 127 0" result="hardAlpha"/>
            <feOffset dy="4"/>
            <feGaussianBlur stdDeviation="2"/>
            <feComposite in2="hardAlpha" operator="out"/>
            <feColorMatrix type="matrix" values="0 0 0 0 0 0 0 0 0 0 0 0 0 0 0 0 0 0 0.25 0"/>
            <feBlend mode="normal" in2="effect1_dropShadow_440_9949" result="effect2_dropShadow_440_9949"/>
            <feBlend mode="normal" in="SourceGraphic" in2="effect2_dropShadow_440_9949" result="shape"/>
        </filter>
        <filter id="filter4_dd_440_9949" x="112.85" y="199" width="97.9131" height="33.7832" filterUnits="userSpaceOnUse" color-interpolation-filters="sRGB">
            <feFlood flood-opacity="0" result="BackgroundImageFix"/>
            <feColorMatrix in="SourceAlpha" type="matrix" values="0 0 0 0 0 0 0 0 0 0 0 0 0 0 0 0 0 0 127 0" result="hardAlpha"/>
            <feOffset dy="4"/>
            <feGaussianBlur stdDeviation="1.9"/>
            <feComposite in2="hardAlpha" operator="out"/>
            <feColorMatrix type="matrix" values="0 0 0 0 0 0 0 0 0 0 0 0 0 0 0 0 0 0 0.25 0"/>
            <feBlend mode="normal" in2="BackgroundImageFix" result="effect1_dropShadow_440_9949"/>
            <feColorMatrix in="SourceAlpha" type="matrix" values="0 0 0 0 0 0 0 0 0 0 0 0 0 0 0 0 0 0 127 0" result="hardAlpha"/>
            <feOffset dy="4"/>
            <feGaussianBlur stdDeviation="2"/>
            <feComposite in2="hardAlpha" operator="out"/>
            <feColorMatrix type="matrix" values="0 0 0 0 0 0 0 0 0 0 0 0 0 0 0 0 0 0 0.25 0"/>
            <feBlend mode="normal" in2="effect1_dropShadow_440_9949" result="effect2_dropShadow_440_9949"/>
            <feBlend mode="normal" in="SourceGraphic" in2="effect2_dropShadow_440_9949" result="shape"/>
        </filter>
        <linearGradient id="paint0_linear_440_9949" x1="159.716" y1="220.6" x2="159.716" y2="230.4" gradientUnits="userSpaceOnUse">
            <stop stop-color="#2FB8FF"/>
            <stop offset="1" stop-color="#9EECD9"/>
        </linearGradient>
        <linearGradient id="paint1_linear_440_9949" x1="312.85" y1="225.5" x2="299.85" y2="225.5" gradientUnits="userSpaceOnUse">
            <stop stop-color="#2FB8FF"/>
            <stop offset="1" stop-color="#9EECD9"/>
        </linearGradient>
        <linearGradient id="paint2_linear_440_9949" x1="161.266" y1="185.358" x2="161.185" y2="232.436" gradientUnits="userSpaceOnUse">
            <stop offset="0.195856" stop-color="#2FB8FF" stop-opacity="0"/>
            <stop offset="0.546579" stop-color="#4BC6F5" stop-opacity="0.4"/>
            <stop offset="0.83609" stop-color="#6BD4EB" stop-opacity="0.7"/>
            <stop offset="1" stop-color="#85E0E1"/>
        </linearGradient>
    </defs>
</svg>