<svg width="227" height="122" viewBox="0 0 227 122" fill="none" xmlns="http://www.w3.org/2000/svg">
    <g filter="url(#filter0_d_434_4031)">
        <rect width="400.001" height="44.802" rx="10" transform="matrix(0.942443 -0.143454 -0.0730291 1.04206 -166.729 63.3818)" fill="white" fill-opacity="0.01" shape-rendering="crispEdges"/>
        <path d="M-167.313 71.7183C-166.99 67.1142 -163.353 62.868 -159.189 62.2342L127.781 18.5529L124.509 65.2394L-162.461 108.921C-166.625 109.554 -169.739 106.336 -169.416 101.732L-167.313 71.7183Z" fill="url(#paint0_linear_434_4031)"/>
        <path d="M127.781 18.5527L197.055 8.00818C204.342 6.899 209.792 12.5315 209.227 20.5887L208 38.0974C207.435 46.1546 201.07 53.5854 193.783 54.6946L124.509 65.2392L127.781 18.5527Z" fill="url(#paint1_linear_434_4031)"/>
    </g>
    <defs>
        <filter id="filter0_d_434_4031" x="-186" y="0" width="412.249" height="136.068" filterUnits="userSpaceOnUse" color-interpolation-filters="sRGB">
            <feFlood flood-opacity="0" result="BackgroundImageFix"/>
            <feColorMatrix in="SourceAlpha" type="matrix" values="0 0 0 0 0 0 0 0 0 0 0 0 0 0 0 0 0 0 127 0" result="hardAlpha"/>
            <feOffset dy="10"/>
            <feGaussianBlur stdDeviation="8"/>
            <feComposite in2="hardAlpha" operator="out"/>
            <feColorMatrix type="matrix" values="0 0 0 0 0 0 0 0 0 0 0 0 0 0 0 0 0 0 0.4 0"/>
            <feBlend mode="normal" in2="BackgroundImageFix" result="effect1_dropShadow_434_4031"/>
            <feBlend mode="normal" in="SourceGraphic" in2="effect1_dropShadow_434_4031" result="shape"/>
        </filter>
        <linearGradient id="paint0_linear_434_4031" x1="-168.364" y1="86.7251" x2="121.58" y2="107.045" gradientUnits="userSpaceOnUse">
            <stop stop-color="#0C0C0C"/>
            <stop offset="1" stop-color="#1D1A1F"/>
        </linearGradient>
        <linearGradient id="paint1_linear_434_4031" x1="169.015" y1="12.2763" x2="175.887" y2="57.4188" gradientUnits="userSpaceOnUse">
            <stop stop-color="#55BC36"/>
            <stop offset="1" stop-color="#275619"/>
        </linearGradient>
    </defs>
</svg>

