<svg width="572" height="272" viewBox="0 0 572 272" fill="none" xmlns="http://www.w3.org/2000/svg">
    <g filter="url(#filter0_din_434_4452)">
        <rect x="17" y="16" width="610" height="480" rx="24" fill="url(#paint0_linear_434_4452)" shape-rendering="crispEdges"/>
        <g filter="url(#filter1_d_434_4452)">
            <rect x="39" y="42" width="216.332" height="50" rx="11" fill="#3F88E4"/>
            <rect x="39.5" y="42.5" width="215.332" height="49" rx="10.5" stroke="black" stroke-opacity="0.2"/>
            <mask id="path-4-outside-1_434_4452" maskUnits="userSpaceOnUse" x="55" y="49" width="185" height="37" fill="black">
                <rect fill="white" x="55" y="49" width="185" height="37"/>
                <path d="M68.6315 52.4785C76.3458 52.4785 81.2057 57.6636 81.2057 65.9741C81.2057 74.2666 76.3458 79.4517 68.6315 79.4517C60.8991 79.4517 56.0573 74.2666 56.0573 65.9741C56.0573 57.6636 60.8991 52.4785 68.6315 52.4785ZM68.6315 57.0312C64.3678 57.0312 61.6217 60.5 61.6217 65.9741C61.6217 71.4302 64.3497 74.8809 68.6315 74.8809C72.8952 74.8809 75.6232 71.4302 75.6232 65.9741C75.6232 60.5 72.8952 57.0312 68.6315 57.0312ZM105.288 68.6479L112.714 79H106.444L100.537 70.6895H100.392V79H95.1891V70.6895H95.0626L89.1369 79H82.9401L90.3112 68.7383L83.193 59.6328H89.2453L95.0626 67.4194H95.1891V59.6328H100.392V67.4194H100.537L106.336 59.6328H112.334L105.288 68.6479ZM119.976 79H114.809V59.6328H119.976V71.7373H120.121L127.817 59.6328H132.984V79H127.817V66.751H127.673L119.976 79ZM149.732 75.0073V63.5894H143.932L143.499 69.7139C143.354 71.7734 142.957 73.562 142.089 74.8628V75.0073H149.732ZM140.03 84.0225H135.242V75.0073H136.724C138.133 74.2124 138.675 71.9902 138.856 69.3706L139.488 59.6328H154.989V75.0073H157.861V84.0225H153.056V79H140.03V84.0225ZM167.708 75.4951C170.002 75.4951 171.899 73.9956 171.899 71.8999V70.4907L167.816 70.7437C165.847 70.8882 164.727 71.7734 164.727 73.1465C164.727 74.5918 165.919 75.4951 167.708 75.4951ZM165.973 79.3071C162.288 79.3071 159.487 76.9224 159.487 73.4355C159.487 69.9126 162.197 67.8711 167.021 67.582L171.899 67.293V66.0103C171.899 64.2036 170.634 63.1558 168.647 63.1558C166.678 63.1558 165.431 64.1313 165.178 65.5586H160.355C160.553 61.8008 163.751 59.2173 168.882 59.2173C173.85 59.2173 177.084 61.7827 177.084 65.6851V79H171.989V76.0371H171.881C170.797 78.0967 168.394 79.3071 165.973 79.3071ZM185.991 79H180.824V59.6328H185.991V71.7373H186.135L193.832 59.6328H198.999V79H193.832V66.751H193.687L185.991 79ZM183.714 50.8706H186.93C186.966 52.8037 188.177 54.1948 190.074 54.1948C191.953 54.1948 193.163 52.8037 193.199 50.8706H196.433C196.433 54.4297 193.868 56.8145 190.074 56.8145C186.262 56.8145 183.714 54.4297 183.714 50.8706ZM218.492 59.6328V63.6074H212.729V79H207.472V63.6074H201.691V59.6328H218.492ZM229.513 63.1196C227.2 63.1196 225.538 64.8721 225.358 67.293H233.578C233.469 64.8179 231.861 63.1196 229.513 63.1196ZM233.65 73.0742H238.492C237.914 76.8682 234.445 79.4155 229.657 79.4155C223.695 79.4155 220.118 75.6035 220.118 69.4067C220.118 63.228 223.732 59.2173 229.459 59.2173C235.095 59.2173 238.654 63.0293 238.654 68.9189V70.5269H225.303V70.8521C225.303 73.6162 227.056 75.5132 229.748 75.5132C231.681 75.5132 233.162 74.5557 233.65 73.0742Z"/>
            </mask>
            <path d="M68.6315 52.4785C76.3458 52.4785 81.2057 57.6636 81.2057 65.9741C81.2057 74.2666 76.3458 79.4517 68.6315 79.4517C60.8991 79.4517 56.0573 74.2666 56.0573 65.9741C56.0573 57.6636 60.8991 52.4785 68.6315 52.4785ZM68.6315 57.0312C64.3678 57.0312 61.6217 60.5 61.6217 65.9741C61.6217 71.4302 64.3497 74.8809 68.6315 74.8809C72.8952 74.8809 75.6232 71.4302 75.6232 65.9741C75.6232 60.5 72.8952 57.0312 68.6315 57.0312ZM105.288 68.6479L112.714 79H106.444L100.537 70.6895H100.392V79H95.1891V70.6895H95.0626L89.1369 79H82.9401L90.3112 68.7383L83.193 59.6328H89.2453L95.0626 67.4194H95.1891V59.6328H100.392V67.4194H100.537L106.336 59.6328H112.334L105.288 68.6479ZM119.976 79H114.809V59.6328H119.976V71.7373H120.121L127.817 59.6328H132.984V79H127.817V66.751H127.673L119.976 79ZM149.732 75.0073V63.5894H143.932L143.499 69.7139C143.354 71.7734 142.957 73.562 142.089 74.8628V75.0073H149.732ZM140.03 84.0225H135.242V75.0073H136.724C138.133 74.2124 138.675 71.9902 138.856 69.3706L139.488 59.6328H154.989V75.0073H157.861V84.0225H153.056V79H140.03V84.0225ZM167.708 75.4951C170.002 75.4951 171.899 73.9956 171.899 71.8999V70.4907L167.816 70.7437C165.847 70.8882 164.727 71.7734 164.727 73.1465C164.727 74.5918 165.919 75.4951 167.708 75.4951ZM165.973 79.3071C162.288 79.3071 159.487 76.9224 159.487 73.4355C159.487 69.9126 162.197 67.8711 167.021 67.582L171.899 67.293V66.0103C171.899 64.2036 170.634 63.1558 168.647 63.1558C166.678 63.1558 165.431 64.1313 165.178 65.5586H160.355C160.553 61.8008 163.751 59.2173 168.882 59.2173C173.85 59.2173 177.084 61.7827 177.084 65.6851V79H171.989V76.0371H171.881C170.797 78.0967 168.394 79.3071 165.973 79.3071ZM185.991 79H180.824V59.6328H185.991V71.7373H186.135L193.832 59.6328H198.999V79H193.832V66.751H193.687L185.991 79ZM183.714 50.8706H186.93C186.966 52.8037 188.177 54.1948 190.074 54.1948C191.953 54.1948 193.163 52.8037 193.199 50.8706H196.433C196.433 54.4297 193.868 56.8145 190.074 56.8145C186.262 56.8145 183.714 54.4297 183.714 50.8706ZM218.492 59.6328V63.6074H212.729V79H207.472V63.6074H201.691V59.6328H218.492ZM229.513 63.1196C227.2 63.1196 225.538 64.8721 225.358 67.293H233.578C233.469 64.8179 231.861 63.1196 229.513 63.1196ZM233.65 73.0742H238.492C237.914 76.8682 234.445 79.4155 229.657 79.4155C223.695 79.4155 220.118 75.6035 220.118 69.4067C220.118 63.228 223.732 59.2173 229.459 59.2173C235.095 59.2173 238.654 63.0293 238.654 68.9189V70.5269H225.303V70.8521C225.303 73.6162 227.056 75.5132 229.748 75.5132C231.681 75.5132 233.162 74.5557 233.65 73.0742Z" fill="black"/>
            <path d="M68.6315 52.4785V53.4785C72.2559 53.4785 75.1186 54.6901 77.0804 56.7922C79.0494 58.9019 80.2057 62.0113 80.2057 65.9741H81.2057H82.2057C82.2057 61.6264 80.9321 57.988 78.5426 55.4276C76.1458 52.8595 72.7214 51.4785 68.6315 51.4785V52.4785ZM81.2057 65.9741H80.2057C80.2057 69.9274 79.0497 73.0322 77.0807 75.1399C75.1188 77.2401 72.256 78.4517 68.6315 78.4517V79.4517V80.4517C72.7214 80.4517 76.1456 79.0707 78.5422 76.5052C80.9318 73.9473 82.2057 70.3133 82.2057 65.9741H81.2057ZM68.6315 79.4517V78.4517C64.9975 78.4517 62.135 77.2397 60.1758 75.1403C58.2093 73.033 57.0573 69.9284 57.0573 65.9741H56.0573H55.0573C55.0573 70.3124 56.3261 73.9464 58.7136 76.5048C61.1084 79.071 64.5331 80.4517 68.6315 80.4517V79.4517ZM56.0573 65.9741H57.0573C57.0573 62.0103 58.2096 58.9011 60.1761 56.7918C62.1353 54.6904 64.9975 53.4785 68.6315 53.4785V52.4785V51.4785C64.533 51.4785 61.1082 52.8592 58.7133 55.4279C56.3258 57.9888 55.0573 61.6274 55.0573 65.9741H56.0573ZM68.6315 57.0312V56.0312C66.2009 56.0312 64.1555 57.033 62.7415 58.8319C61.3466 60.6066 60.6217 63.0811 60.6217 65.9741H61.6217H62.6217C62.6217 63.393 63.2699 61.3961 64.3139 60.0679C65.3389 58.7639 66.7984 58.0312 68.6315 58.0312V57.0312ZM61.6217 65.9741H60.6217C60.6217 68.8574 61.3417 71.3237 62.7355 73.0924C64.1488 74.8859 66.1948 75.8809 68.6315 75.8809V74.8809V73.8809C66.7864 73.8809 65.3276 73.1505 64.3064 71.8546C63.2657 70.5339 62.6217 68.5469 62.6217 65.9741H61.6217ZM68.6315 74.8809V75.8809C71.0605 75.8809 73.1019 74.8848 74.5122 73.0917C75.9032 71.3233 76.6232 68.8574 76.6232 65.9741H75.6232H74.6232C74.6232 68.5469 73.9792 70.5343 72.9402 71.8553C71.9206 73.1516 70.4661 73.8809 68.6315 73.8809V74.8809ZM75.6232 65.9741H76.6232C76.6232 63.0825 75.9035 60.6083 74.5135 58.8333C73.104 57.0334 71.0625 56.0312 68.6315 56.0312V57.0312V58.0312C70.4642 58.0312 71.9185 58.7635 72.9389 60.0664C73.9788 61.3944 74.6232 63.3916 74.6232 65.9741H75.6232ZM105.288 68.6479L104.5 68.0322L104.039 68.6222L104.476 69.2308L105.288 68.6479ZM112.714 79V80H114.661L113.526 78.4172L112.714 79ZM106.444 79L105.629 79.5794L105.928 80H106.444V79ZM100.537 70.6895L101.352 70.1101L101.053 69.6895H100.537V70.6895ZM100.392 70.6895V69.6895H99.3922V70.6895H100.392ZM100.392 79V80H101.392V79H100.392ZM95.1891 79H94.1891V80H95.1891V79ZM95.1891 70.6895H96.1891V69.6895H95.1891V70.6895ZM95.0626 70.6895V69.6895H94.5475L94.2484 70.1089L95.0626 70.6895ZM89.1369 79V80H89.652L89.9511 79.5806L89.1369 79ZM82.9401 79L82.1279 78.4166L80.9905 80H82.9401V79ZM90.3112 68.7383L91.1234 69.3217L91.5606 68.7129L91.099 68.1224L90.3112 68.7383ZM83.193 59.6328V58.6328H81.142L82.4052 60.2487L83.193 59.6328ZM89.2453 59.6328L90.0464 59.0343L89.7464 58.6328H89.2453V59.6328ZM95.0626 67.4194L94.2615 68.0179L94.5615 68.4194H95.0626V67.4194ZM95.1891 67.4194V68.4194H96.1891V67.4194H95.1891ZM95.1891 59.6328V58.6328H94.1891V59.6328H95.1891ZM100.392 59.6328H101.392V58.6328H100.392V59.6328ZM100.392 67.4194H99.3922V68.4194H100.392V67.4194ZM100.537 67.4194V68.4194H101.039L101.339 68.0168L100.537 67.4194ZM106.336 59.6328V58.6328H105.834L105.534 59.0355L106.336 59.6328ZM112.334 59.6328L113.122 60.2486L114.385 58.6328H112.334V59.6328ZM105.288 68.6479L104.476 69.2308L111.901 79.5828L112.714 79L113.526 78.4172L106.101 68.0651L105.288 68.6479ZM112.714 79V78H106.444V79V80H112.714V79ZM106.444 79L107.26 78.4206L101.352 70.1101L100.537 70.6895L99.7217 71.2688L105.629 79.5794L106.444 79ZM100.537 70.6895V69.6895H100.392V70.6895V71.6895H100.537V70.6895ZM100.392 70.6895H99.3922V79H100.392H101.392V70.6895H100.392ZM100.392 79V78H95.1891V79V80H100.392V79ZM95.1891 79H96.1891V70.6895H95.1891H94.1891V79H95.1891ZM95.1891 70.6895V69.6895H95.0626V70.6895V71.6895H95.1891V70.6895ZM95.0626 70.6895L94.2484 70.1089L88.3226 78.4194L89.1369 79L89.9511 79.5806L95.8768 71.27L95.0626 70.6895ZM89.1369 79V78H82.9401V79V80H89.1369V79ZM82.9401 79L83.7523 79.5834L91.1234 69.3217L90.3112 68.7383L89.499 68.1549L82.1279 78.4166L82.9401 79ZM90.3112 68.7383L91.099 68.1224L83.9808 59.0169L83.193 59.6328L82.4052 60.2487L89.5233 69.3542L90.3112 68.7383ZM83.193 59.6328V60.6328H89.2453V59.6328V58.6328H83.193V59.6328ZM89.2453 59.6328L88.4441 60.2313L94.2615 68.0179L95.0626 67.4194L95.8638 66.8209L90.0464 59.0343L89.2453 59.6328ZM95.0626 67.4194V68.4194H95.1891V67.4194V66.4194H95.0626V67.4194ZM95.1891 67.4194H96.1891V59.6328H95.1891H94.1891V67.4194H95.1891ZM95.1891 59.6328V60.6328H100.392V59.6328V58.6328H95.1891V59.6328ZM100.392 59.6328H99.3922V67.4194H100.392H101.392V59.6328H100.392ZM100.392 67.4194V68.4194H100.537V67.4194V66.4194H100.392V67.4194ZM100.537 67.4194L101.339 68.0168L107.138 60.2301L106.336 59.6328L105.534 59.0355L99.7348 66.8221L100.537 67.4194ZM106.336 59.6328V60.6328H112.334V59.6328V58.6328H106.336V59.6328ZM112.334 59.6328L111.546 59.017L104.5 68.0322L105.288 68.6479L106.076 69.2637L113.122 60.2486L112.334 59.6328ZM119.976 79V80H120.529L120.823 79.532L119.976 79ZM114.809 79H113.809V80H114.809V79ZM114.809 59.6328V58.6328H113.809V59.6328H114.809ZM119.976 59.6328H120.976V58.6328H119.976V59.6328ZM119.976 71.7373H118.976V72.7373H119.976V71.7373ZM120.121 71.7373V72.7373H120.67L120.965 72.2739L120.121 71.7373ZM127.817 59.6328V58.6328H127.268L126.973 59.0963L127.817 59.6328ZM132.984 59.6328H133.984V58.6328H132.984V59.6328ZM132.984 79V80H133.984V79H132.984ZM127.817 79H126.817V80H127.817V79ZM127.817 66.751H128.817V65.751H127.817V66.751ZM127.673 66.751V65.751H127.12L126.826 66.219L127.673 66.751ZM119.976 79V78H114.809V79V80H119.976V79ZM114.809 79H115.809V59.6328H114.809H113.809V79H114.809ZM114.809 59.6328V60.6328H119.976V59.6328V58.6328H114.809V59.6328ZM119.976 59.6328H118.976V71.7373H119.976H120.976V59.6328H119.976ZM119.976 71.7373V72.7373H120.121V71.7373V70.7373H119.976V71.7373ZM120.121 71.7373L120.965 72.2739L128.661 60.1694L127.817 59.6328L126.973 59.0963L119.277 71.2008L120.121 71.7373ZM127.817 59.6328V60.6328H132.984V59.6328V58.6328H127.817V59.6328ZM132.984 59.6328H131.984V79H132.984H133.984V59.6328H132.984ZM132.984 79V78H127.817V79V80H132.984V79ZM127.817 79H128.817V66.751H127.817H126.817V79H127.817ZM127.817 66.751V65.751H127.673V66.751V67.751H127.817V66.751ZM127.673 66.751L126.826 66.219L119.129 78.468L119.976 79L120.823 79.532L128.519 67.283L127.673 66.751ZM149.732 75.0073V76.0073H150.732V75.0073H149.732ZM149.732 63.5894H150.732V62.5894H149.732V63.5894ZM143.932 63.5894V62.5894H143.001L142.935 63.5187L143.932 63.5894ZM143.499 69.7139L142.501 69.6432L142.501 69.6439L143.499 69.7139ZM142.089 74.8628L141.257 74.3081L141.089 74.56V74.8628H142.089ZM142.089 75.0073H141.089V76.0073H142.089V75.0073ZM140.03 84.0225V85.0225H141.03V84.0225H140.03ZM135.242 84.0225H134.242V85.0225H135.242V84.0225ZM135.242 75.0073V74.0073H134.242V75.0073H135.242ZM136.724 75.0073V76.0073H136.986L137.215 75.8783L136.724 75.0073ZM138.856 69.3706L139.853 69.4394L139.854 69.4354L138.856 69.3706ZM139.488 59.6328V58.6328H138.551L138.49 59.568L139.488 59.6328ZM154.989 59.6328H155.989V58.6328H154.989V59.6328ZM154.989 75.0073H153.989V76.0073H154.989V75.0073ZM157.861 75.0073H158.861V74.0073H157.861V75.0073ZM157.861 84.0225V85.0225H158.861V84.0225H157.861ZM153.056 84.0225H152.056V85.0225H153.056V84.0225ZM153.056 79H154.056V78H153.056V79ZM140.03 79V78H139.03V79H140.03ZM149.732 75.0073H150.732V63.5894H149.732H148.732V75.0073H149.732ZM149.732 63.5894V62.5894H143.932V63.5894V64.5894H149.732V63.5894ZM143.932 63.5894L142.935 63.5187L142.501 69.6432L143.499 69.7139L144.496 69.7845L144.93 63.66L143.932 63.5894ZM143.499 69.7139L142.501 69.6439C142.361 71.6467 141.98 73.225 141.257 74.3081L142.089 74.8628L142.922 75.4175C143.934 73.899 144.348 71.9002 144.496 69.7839L143.499 69.7139ZM142.089 74.8628H141.089V75.0073H142.089H143.089V74.8628H142.089ZM142.089 75.0073V76.0073H149.732V75.0073V74.0073H142.089V75.0073ZM140.03 84.0225V83.0225H135.242V84.0225V85.0225H140.03V84.0225ZM135.242 84.0225H136.242V75.0073H135.242H134.242V84.0225H135.242ZM135.242 75.0073V76.0073H136.724V75.0073V74.0073H135.242V75.0073ZM136.724 75.0073L137.215 75.8783C138.226 75.3079 138.826 74.2853 139.197 73.1953C139.572 72.0942 139.76 70.7853 139.853 69.4394L138.856 69.3706L137.858 69.3018C137.77 70.5755 137.598 71.6875 137.304 72.5511C137.006 73.4259 136.631 73.9118 136.232 74.1363L136.724 75.0073ZM138.856 69.3706L139.854 69.4354L140.486 59.6976L139.488 59.6328L138.49 59.568L137.858 69.3058L138.856 69.3706ZM139.488 59.6328V60.6328H154.989V59.6328V58.6328H139.488V59.6328ZM154.989 59.6328H153.989V75.0073H154.989H155.989V59.6328H154.989ZM154.989 75.0073V76.0073H157.861V75.0073V74.0073H154.989V75.0073ZM157.861 75.0073H156.861V84.0225H157.861H158.861V75.0073H157.861ZM157.861 84.0225V83.0225H153.056V84.0225V85.0225H157.861V84.0225ZM153.056 84.0225H154.056V79H153.056H152.056V84.0225H153.056ZM153.056 79V78H140.03V79V80H153.056V79ZM140.03 79H139.03V84.0225H140.03H141.03V79H140.03ZM171.899 70.4907H172.899V69.4269L171.837 69.4926L171.899 70.4907ZM167.816 70.7437L167.754 69.7455L167.743 69.7463L167.816 70.7437ZM167.021 67.582L166.962 66.5838L166.961 66.5838L167.021 67.582ZM171.899 67.293L171.958 68.2912L172.899 68.2355V67.293H171.899ZM165.178 65.5586V66.5586H166.017L166.163 65.7331L165.178 65.5586ZM160.355 65.5586L159.356 65.5058L159.3 66.5586H160.355V65.5586ZM177.084 79V80H178.084V79H177.084ZM171.989 79H170.989V80H171.989V79ZM171.989 76.0371H172.989V75.0371H171.989V76.0371ZM171.881 76.0371V75.0371H171.277L170.996 75.5714L171.881 76.0371ZM167.708 75.4951V76.4951C170.38 76.4951 172.899 74.7074 172.899 71.8999H171.899H170.899C170.899 73.2838 169.624 74.4951 167.708 74.4951V75.4951ZM171.899 71.8999H172.899V70.4907H171.899H170.899V71.8999H171.899ZM171.899 70.4907L171.837 69.4926L167.754 69.7456L167.816 70.7437L167.878 71.7417L171.961 71.4888L171.899 70.4907ZM167.816 70.7437L167.743 69.7463C166.64 69.8273 165.652 70.1223 164.917 70.6963C164.149 71.2968 163.727 72.1521 163.727 73.1465H164.727H165.727C165.727 72.7679 165.865 72.494 166.148 72.2725C166.466 72.0244 167.023 71.8045 167.889 71.741L167.816 70.7437ZM164.727 73.1465H163.727C163.727 74.1735 164.164 75.0532 164.932 75.6516C165.675 76.2305 166.656 76.4951 167.708 76.4951V75.4951V74.4951C166.97 74.4951 166.461 74.308 166.161 74.074C165.886 73.8594 165.727 73.5648 165.727 73.1465H164.727ZM165.973 79.3071V78.3071C162.726 78.3071 160.487 76.2628 160.487 73.4355H159.487H158.487C158.487 77.5819 161.849 80.3071 165.973 80.3071V79.3071ZM159.487 73.4355H160.487C160.487 71.9656 161.035 70.8746 162.056 70.0881C163.118 69.2694 164.778 68.7182 167.081 68.5802L167.021 67.582L166.961 66.5838C164.44 66.7349 162.334 67.349 160.835 68.504C159.294 69.6913 158.487 71.3826 158.487 73.4355H159.487ZM167.021 67.582L167.08 68.5803L171.958 68.2912L171.899 67.293L171.84 66.2947L166.962 66.5838L167.021 67.582ZM171.899 67.293H172.899V66.0103H171.899H170.899V67.293H171.899ZM171.899 66.0103H172.899C172.899 64.8579 172.486 63.8522 171.672 63.1488C170.877 62.4618 169.807 62.1558 168.647 62.1558V63.1558V64.1558C169.474 64.1558 170.031 64.3736 170.365 64.6622C170.68 64.9345 170.899 65.3559 170.899 66.0103H171.899ZM168.647 63.1558V62.1558C167.501 62.1558 166.481 62.4401 165.687 63.0091C164.882 63.5853 164.365 64.4164 164.194 65.3841L165.178 65.5586L166.163 65.7331C166.244 65.2735 166.477 64.9032 166.852 64.6349C167.236 64.3592 167.824 64.1558 168.647 64.1558V63.1558ZM165.178 65.5586V64.5586H160.355V65.5586V66.5586H165.178V65.5586ZM160.355 65.5586L161.353 65.6114C161.437 64.0263 162.142 62.7124 163.374 61.7745C164.624 60.8232 166.476 60.2173 168.882 60.2173V59.2173V58.2173C166.157 58.2173 163.845 58.9032 162.163 60.183C160.464 61.4763 159.471 63.3331 159.356 65.5058L160.355 65.5586ZM168.882 59.2173V60.2173C171.204 60.2173 173.017 60.8173 174.226 61.7725C175.414 62.7106 176.084 64.0375 176.084 65.6851H177.084H178.084C178.084 63.4303 177.137 61.5233 175.466 60.2031C173.816 58.9 171.528 58.2173 168.882 58.2173V59.2173ZM177.084 65.6851H176.084V79H177.084H178.084V65.6851H177.084ZM177.084 79V78H171.989V79V80H177.084V79ZM171.989 79H172.989V76.0371H171.989H170.989V79H171.989ZM171.989 76.0371V75.0371H171.881V76.0371V77.0371H171.989V76.0371ZM171.881 76.0371L170.996 75.5714C170.119 77.238 168.102 78.3071 165.973 78.3071V79.3071V80.3071C168.687 80.3071 171.475 78.9554 172.766 76.5029L171.881 76.0371ZM185.991 79V80H186.544L186.838 79.532L185.991 79ZM180.824 79H179.824V80H180.824V79ZM180.824 59.6328V58.6328H179.824V59.6328H180.824ZM185.991 59.6328H186.991V58.6328H185.991V59.6328ZM185.991 71.7373H184.991V72.7373H185.991V71.7373ZM186.135 71.7373V72.7373H186.685L186.979 72.2739L186.135 71.7373ZM193.832 59.6328V58.6328H193.282L192.988 59.0963L193.832 59.6328ZM198.999 59.6328H199.999V58.6328H198.999V59.6328ZM198.999 79V80H199.999V79H198.999ZM193.832 79H192.832V80H193.832V79ZM193.832 66.751H194.832V65.751H193.832V66.751ZM193.687 66.751V65.751H193.134L192.84 66.219L193.687 66.751ZM183.714 50.8706V49.8706H182.714V50.8706H183.714ZM186.93 50.8706L187.93 50.8519L187.912 49.8706H186.93V50.8706ZM193.199 50.8706V49.8706H192.218L192.2 50.8519L193.199 50.8706ZM196.433 50.8706H197.433V49.8706H196.433V50.8706ZM185.991 79V78H180.824V79V80H185.991V79ZM180.824 79H181.824V59.6328H180.824H179.824V79H180.824ZM180.824 59.6328V60.6328H185.991V59.6328V58.6328H180.824V59.6328ZM185.991 59.6328H184.991V71.7373H185.991H186.991V59.6328H185.991ZM185.991 71.7373V72.7373H186.135V71.7373V70.7373H185.991V71.7373ZM186.135 71.7373L186.979 72.2739L194.676 60.1694L193.832 59.6328L192.988 59.0963L185.292 71.2008L186.135 71.7373ZM193.832 59.6328V60.6328H198.999V59.6328V58.6328H193.832V59.6328ZM198.999 59.6328H197.999V79H198.999H199.999V59.6328H198.999ZM198.999 79V78H193.832V79V80H198.999V79ZM193.832 79H194.832V66.751H193.832H192.832V79H193.832ZM193.832 66.751V65.751H193.687V66.751V67.751H193.832V66.751ZM193.687 66.751L192.84 66.219L185.144 78.468L185.991 79L186.838 79.532L194.534 67.283L193.687 66.751ZM183.714 50.8706V51.8706H186.93V50.8706V49.8706H183.714V50.8706ZM186.93 50.8706L185.93 50.8893C185.952 52.0576 186.332 53.1372 187.07 53.936C187.816 54.7446 188.866 55.1948 190.074 55.1948V54.1948V53.1948C189.385 53.1948 188.881 52.9495 188.539 52.5792C188.188 52.1992 187.944 51.6167 187.93 50.8519L186.93 50.8706ZM190.074 54.1948V55.1948C191.275 55.1948 192.321 54.7426 193.064 53.9345C193.798 53.1363 194.177 52.0576 194.199 50.8893L193.199 50.8706L192.2 50.8519C192.185 51.6167 191.942 52.2002 191.592 52.5808C191.251 52.9515 190.751 53.1948 190.074 53.1948V54.1948ZM193.199 50.8706V51.8706H196.433V50.8706V49.8706H193.199V50.8706ZM196.433 50.8706H195.433C195.433 52.3988 194.889 53.6111 193.994 54.4461C193.093 55.2868 191.761 55.8145 190.074 55.8145V56.8145V57.8145C192.181 57.8145 194.028 57.1497 195.359 55.9083C196.695 54.6612 197.433 52.9015 197.433 50.8706H196.433ZM190.074 56.8145V55.8145C188.377 55.8145 187.045 55.2863 186.148 54.4468C185.256 53.6128 184.714 52.4009 184.714 50.8706H183.714H182.714C182.714 52.8994 183.447 54.6594 184.782 55.9076C186.111 57.1503 187.959 57.8145 190.074 57.8145V56.8145ZM218.492 59.6328H219.492V58.6328H218.492V59.6328ZM218.492 63.6074V64.6074H219.492V63.6074H218.492ZM212.729 63.6074V62.6074H211.729V63.6074H212.729ZM212.729 79V80H213.729V79H212.729ZM207.472 79H206.472V80H207.472V79ZM207.472 63.6074H208.472V62.6074H207.472V63.6074ZM201.691 63.6074H200.691V64.6074H201.691V63.6074ZM201.691 59.6328V58.6328H200.691V59.6328H201.691ZM218.492 59.6328H217.492V63.6074H218.492H219.492V59.6328H218.492ZM218.492 63.6074V62.6074H212.729V63.6074V64.6074H218.492V63.6074ZM212.729 63.6074H211.729V79H212.729H213.729V63.6074H212.729ZM212.729 79V78H207.472V79V80H212.729V79ZM207.472 79H208.472V63.6074H207.472H206.472V79H207.472ZM207.472 63.6074V62.6074H201.691V63.6074V64.6074H207.472V63.6074ZM201.691 63.6074H202.691V59.6328H201.691H200.691V63.6074H201.691ZM201.691 59.6328V60.6328H218.492V59.6328V58.6328H201.691V59.6328ZM225.358 67.293L224.36 67.2185L224.28 68.293H225.358V67.293ZM233.578 67.293V68.293H234.623L234.577 67.2492L233.578 67.293ZM233.65 73.0742V72.0742H232.926L232.7 72.7615L233.65 73.0742ZM238.492 73.0742L239.48 73.2249L239.656 72.0742H238.492V73.0742ZM238.654 70.5269V71.5269H239.654V70.5269H238.654ZM225.303 70.5269V69.5269H224.303V70.5269H225.303ZM229.513 63.1196V62.1196C226.595 62.1196 224.574 64.3621 224.36 67.2185L225.358 67.293L226.355 67.3674C226.503 65.3821 227.806 64.1196 229.513 64.1196V63.1196ZM225.358 67.293V68.293H233.578V67.293V66.293H225.358V67.293ZM233.578 67.293L234.577 67.2492C234.514 65.8058 234.008 64.5184 233.105 63.5833C232.195 62.6417 230.94 62.1196 229.513 62.1196V63.1196V64.1196C230.434 64.1196 231.158 64.4466 231.666 64.973C232.181 65.5057 232.534 66.305 232.579 67.3367L233.578 67.293ZM233.65 73.0742V74.0742H238.492V73.0742V72.0742H233.65V73.0742ZM238.492 73.0742L237.503 72.9236C237.021 76.0902 234.106 78.4155 229.657 78.4155V79.4155V80.4155C234.784 80.4155 238.807 77.6462 239.48 73.2249L238.492 73.0742ZM229.657 79.4155V78.4155C226.895 78.4155 224.793 77.5384 223.377 76.0465C221.955 74.5481 221.118 72.3157 221.118 69.4067H220.118H219.118C219.118 72.6945 220.07 75.4665 221.927 77.4233C223.79 79.3867 226.457 80.4155 229.657 80.4155V79.4155ZM220.118 69.4067H221.118C221.118 66.509 221.964 64.2211 223.38 62.6689C224.786 61.1267 226.84 60.2173 229.459 60.2173V59.2173V58.2173C226.35 58.2173 223.734 59.3132 221.902 61.3211C220.08 63.3189 219.118 66.1257 219.118 69.4067H220.118ZM229.459 59.2173V60.2173C232.043 60.2173 234.064 61.0849 235.443 62.5459C236.828 64.0132 237.654 66.1746 237.654 68.9189H238.654H239.654C239.654 65.7737 238.701 63.0842 236.898 61.1731C235.088 59.2556 232.511 58.2173 229.459 58.2173V59.2173ZM238.654 68.9189H237.654V70.5269H238.654H239.654V68.9189H238.654ZM238.654 70.5269V69.5269H225.303V70.5269V71.5269H238.654V70.5269ZM225.303 70.5269H224.303V70.8521H225.303H226.303V70.5269H225.303ZM225.303 70.8521H224.303C224.303 72.446 224.811 73.8712 225.789 74.906C226.772 75.9465 228.157 76.5132 229.748 76.5132V75.5132V74.5132C228.647 74.5132 227.809 74.1314 227.243 73.5324C226.671 72.9276 226.303 72.0222 226.303 70.8521H225.303ZM229.748 75.5132V76.5132C232.003 76.5132 233.946 75.3734 234.6 73.387L233.65 73.0742L232.7 72.7615C232.379 73.7379 231.358 74.5132 229.748 74.5132V75.5132Z" fill="black" fill-opacity="0.2" mask="url(#path-4-outside-1_434_4452)"/>
        </g>
    </g>
    <defs>
        <filter id="filter0_din_434_4452" x="0" y="0" width="640" height="510" filterUnits="userSpaceOnUse" color-interpolation-filters="sRGB">
            <feFlood flood-opacity="0" result="BackgroundImageFix"/>
            <feColorMatrix in="SourceAlpha" type="matrix" values="0 0 0 0 0 0 0 0 0 0 0 0 0 0 0 0 0 0 127 0" result="hardAlpha"/>
            <feOffset dx="-2" dy="-1"/>
            <feGaussianBlur stdDeviation="7.5"/>
            <feComposite in2="hardAlpha" operator="out"/>
            <feColorMatrix type="matrix" values="0 0 0 0 0 0 0 0 0 0 0 0 0 0 0 0 0 0 0.64 0"/>
            <feBlend mode="normal" in2="BackgroundImageFix" result="effect1_dropShadow_434_4452"/>
            <feBlend mode="normal" in="SourceGraphic" in2="BackgroundImageFix" result="shape"/>
            <feColorMatrix in="SourceAlpha" type="matrix" values="0 0 0 0 0 0 0 0 0 0 0 0 0 0 0 0 0 0 127 0" result="hardAlpha"/>
            <feOffset dy="2"/>
            <feGaussianBlur stdDeviation="1"/>
            <feComposite in2="hardAlpha" operator="arithmetic" k2="-1" k3="1"/>
            <feColorMatrix type="matrix" values="0 0 0 0 0.321569 0 0 0 0 0.317647 0 0 0 0 0.329412 0 0 0 1 0"/>
            <feBlend mode="normal" in2="shape" result="effect2_innerShadow_434_4452"/>
            <feTurbulence type="fractalNoise" baseFrequency="2 2" stitchTiles="stitch" numOctaves="3" result="noise" seed="9152" />
            <feColorMatrix in="noise" type="luminanceToAlpha" result="alphaNoise" />
            <feComponentTransfer in="alphaNoise" result="coloredNoise1">
                <feFuncA type="discrete" tableValues="1 1 1 1 1 1 1 1 1 1 1 1 1 1 1 1 1 1 1 1 1 1 1 1 1 1 1 1 1 1 1 1 1 1 1 1 1 1 1 1 1 1 1 1 1 1 1 1 1 1 1 0 0 0 0 0 0 0 0 0 0 0 0 0 0 0 0 0 0 0 0 0 0 0 0 0 0 0 0 0 0 0 0 0 0 0 0 0 0 0 0 0 0 0 0 0 0 0 0 0 "/>
            </feComponentTransfer>
            <feComposite operator="in" in2="effect2_innerShadow_434_4452" in="coloredNoise1" result="noise1Clipped" />
            <feFlood flood-color="rgba(0, 0, 0, 0.25)" result="color1Flood" />
            <feComposite operator="in" in2="noise1Clipped" in="color1Flood" result="color1" />
            <feMerge result="effect3_noise_434_4452">
                <feMergeNode in="effect2_innerShadow_434_4452" />
                <feMergeNode in="color1" />
            </feMerge>
            <feBlend mode="normal" in="effect3_noise_434_4452" in2="effect1_dropShadow_434_4452" result="effect3_noise_434_4452"/>
        </filter>
        <filter id="filter1_d_434_4452" x="35" y="42" width="224.332" height="58" filterUnits="userSpaceOnUse" color-interpolation-filters="sRGB">
            <feFlood flood-opacity="0" result="BackgroundImageFix"/>
            <feColorMatrix in="SourceAlpha" type="matrix" values="0 0 0 0 0 0 0 0 0 0 0 0 0 0 0 0 0 0 127 0" result="hardAlpha"/>
            <feOffset dy="4"/>
            <feGaussianBlur stdDeviation="2"/>
            <feComposite in2="hardAlpha" operator="out"/>
            <feColorMatrix type="matrix" values="0 0 0 0 0 0 0 0 0 0 0 0 0 0 0 0 0 0 0.25 0"/>
            <feBlend mode="normal" in2="BackgroundImageFix" result="effect1_dropShadow_434_4452"/>
            <feBlend mode="normal" in="SourceGraphic" in2="effect1_dropShadow_434_4452" result="shape"/>
        </filter>
        <linearGradient id="paint0_linear_434_4452" x1="322" y1="16" x2="322" y2="496" gradientUnits="userSpaceOnUse">
            <stop stop-color="#343236"/>
            <stop offset="1" stop-color="#38343F"/>
        </linearGradient>
    </defs>
</svg>
